<svg width="133" height="50" viewBox="0 0 133 50" fill="none" xmlns="http://www.w3.org/2000/svg">
<g filter="url(#filter0_d_4130_509)">
<g clip-path="url(#clip0_4130_509)">
<path d="M15.0215 8.93302C18.1472 12.9011 19.8158 17.7944 19.7553 22.8155V24.0141L20.7865 24.6416C22.119 25.4482 23.1127 26.6993 23.5866 28.1669C23.1705 27.8605 22.7352 27.5803 22.2833 27.3278L19.5333 25.7838L19.0391 28.9001C18.9963 29.1755 18.9389 29.4485 18.8672 29.718H11.1615C11.0469 29.3655 10.9538 29.0129 10.8679 28.6463L10.2448 25.8261L7.70968 27.2362C7.28615 27.473 6.87723 27.7344 6.48507 28.0188C6.96824 26.5682 7.94123 25.3242 9.24224 24.4935L10.2234 23.866V22.7521C10.2411 17.7513 11.9297 12.8952 15.0287 8.93302H15.0215ZM15.0287 6C14.868 6.00039 14.7128 6.05799 14.5918 6.16216L14.5274 6.21857C10.3978 10.7656 8.10466 16.6454 8.08208 22.745C6.32967 23.8643 5.03251 25.5543 4.41726 27.5197C3.80202 29.485 3.90783 31.6007 4.71619 33.4971C5.56776 31.6455 6.99131 30.1058 8.7839 29.0975C8.96368 29.8642 9.2031 30.6161 9.50005 31.3467C9.53771 31.4871 9.62118 31.6114 9.73763 31.7006C9.85408 31.7898 9.99706 31.8388 10.1446 31.8402H20.0847C20.2852 31.8402 20.4857 31.6498 20.586 31.3537C20.8758 30.6592 21.0778 29.9322 21.1875 29.1892C22.9836 30.1932 24.4083 31.7342 25.2553 33.5887C26.1124 31.7017 26.2451 29.5727 25.6287 27.5967C25.0124 25.6206 23.6888 23.9319 21.9037 22.8437C21.9745 16.7082 19.6935 10.7718 15.5157 6.21857C15.4535 6.15008 15.3773 6.09524 15.2922 6.05759C15.2071 6.01993 15.1149 6.00031 15.0215 6H15.0287Z" fill="#4EA8DE"/>
<path d="M15.0216 22.1598C14.4715 22.1598 13.9338 21.9995 13.4761 21.699C13.0185 21.3986 12.6614 20.9715 12.4499 20.4716C12.2385 19.9716 12.1821 19.4213 12.2878 18.8898C12.3936 18.3584 12.6568 17.8697 13.0442 17.4853C13.4317 17.1009 13.9261 16.838 14.465 16.7298C15.004 16.6216 15.5634 16.6729 16.0728 16.8773C16.5822 17.0816 17.0188 17.4298 17.3275 17.8781C17.6361 18.3263 17.8031 18.8545 17.8074 19.396C17.8159 19.7469 17.7542 20.0961 17.6256 20.4235C17.4971 20.751 17.3043 21.0503 17.0582 21.3043C16.8121 21.5583 16.5176 21.7622 16.1915 21.9041C15.8654 22.0461 15.5141 22.1234 15.1576 22.1316C15.1126 22.1387 15.0666 22.1387 15.0216 22.1316V22.1598Z" fill="#4EA8DE"/>
<path d="M18.8959 33.5958C18.7167 33.5901 18.5382 33.6198 18.3708 33.683C18.2034 33.7462 18.0505 33.8416 17.9211 33.9638C17.7917 34.086 17.6884 34.2323 17.6172 34.3943C17.546 34.5563 17.5084 34.7307 17.5066 34.9072V39.067C17.5066 39.4297 17.653 39.7776 17.9135 40.0342C18.1741 40.2907 18.5274 40.4348 18.8959 40.4348C19.2644 40.4348 19.6178 40.2907 19.8783 40.0342C20.1389 39.7776 20.2852 39.4297 20.2852 39.067V34.9636C20.291 34.7877 20.2611 34.6126 20.1973 34.4482C20.1336 34.2839 20.0372 34.1337 19.9139 34.0064C19.7906 33.879 19.6428 33.7772 19.4791 33.7067C19.3154 33.6362 19.139 33.5985 18.9604 33.5958H18.8959Z" fill="#5E60CE"/>
<path d="M11.1615 33.5957C10.9793 33.5863 10.797 33.6129 10.6255 33.6742C10.4539 33.7355 10.2967 33.8302 10.163 33.9525C10.0294 34.0749 9.92213 34.2224 9.84761 34.3864C9.77309 34.5504 9.73284 34.7275 9.72925 34.9071V39.067C9.72925 39.4297 9.87562 39.7776 10.1362 40.0341C10.3967 40.2906 10.7501 40.4348 11.1186 40.4348C11.487 40.4348 11.8404 40.2906 12.101 40.0341C12.3615 39.7776 12.5079 39.4297 12.5079 39.067V34.9635C12.5136 34.7877 12.4837 34.6125 12.42 34.4482C12.3562 34.2838 12.2599 34.1336 12.1366 34.0063C12.0133 33.879 11.8654 33.7771 11.7017 33.7067C11.538 33.6362 11.3617 33.5985 11.183 33.5957H11.1615Z" fill="#5E60CE"/>
<path d="M14.9213 33.5958C14.7426 33.592 14.5649 33.623 14.3984 33.6869C14.2318 33.7507 14.0797 33.8463 13.9507 33.9681C13.8217 34.0899 13.7183 34.2355 13.6464 34.3966C13.5746 34.5577 13.5357 34.7312 13.532 34.9072V40.6392C13.532 41.002 13.6784 41.3499 13.9389 41.6064C14.1995 41.8629 14.5528 42.007 14.9213 42.007C15.2898 42.007 15.6432 41.8629 15.9037 41.6064C16.1643 41.3499 16.3106 41.002 16.3106 40.6392V34.9988C16.3164 34.823 16.2865 34.6478 16.2227 34.4835C16.159 34.3191 16.0626 34.1689 15.9393 34.0416C15.816 33.9143 15.6682 33.8124 15.5045 33.7419C15.3408 33.6714 15.1644 33.6337 14.9858 33.631L14.9213 33.5958Z" fill="#5E60CE"/>
</g>
<path d="M53 17.1818V22.8636H38.625V17.1818H53ZM41.4091 11.9545H49.25V31.983C49.25 32.286 49.3021 32.5417 49.4062 32.75C49.5104 32.9489 49.6714 33.1004 49.8892 33.2045C50.107 33.2992 50.3864 33.3466 50.7273 33.3466C50.964 33.3466 51.2386 33.3182 51.5511 33.2614C51.8731 33.2045 52.1098 33.1572 52.2614 33.1193L53.3977 38.6307C53.0473 38.7348 52.5455 38.8627 51.892 39.0142C51.2481 39.1657 50.4811 39.2652 49.5909 39.3125C47.7917 39.4072 46.2813 39.2225 45.0597 38.7585C43.8381 38.285 42.9195 37.5417 42.304 36.5284C41.6884 35.5152 41.3902 34.2462 41.4091 32.7216V11.9545ZM66.4766 39.3977C64.1091 39.3977 62.0826 38.929 60.397 37.9915C58.7114 37.0445 57.4188 35.7282 56.5192 34.0426C55.6196 32.3475 55.1697 30.3826 55.1697 28.1477C55.1697 25.9129 55.6196 23.9527 56.5192 22.267C57.4188 20.572 58.7114 19.2557 60.397 18.3182C62.0826 17.3712 64.1091 16.8977 66.4766 16.8977C68.844 16.8977 70.8705 17.3712 72.5561 18.3182C74.2417 19.2557 75.5343 20.572 76.4339 22.267C77.3336 23.9527 77.7834 25.9129 77.7834 28.1477C77.7834 30.3826 77.3336 32.3475 76.4339 34.0426C75.5343 35.7282 74.2417 37.0445 72.5561 37.9915C70.8705 38.929 68.844 39.3977 66.4766 39.3977ZM66.5334 33.6023C67.1963 33.6023 67.7692 33.3797 68.2521 32.9347C68.7351 32.4896 69.1091 31.8551 69.3743 31.0312C69.6394 30.2074 69.772 29.2273 69.772 28.0909C69.772 26.9451 69.6394 25.965 69.3743 25.1506C69.1091 24.3267 68.7351 23.6922 68.2521 23.2472C67.7692 22.8021 67.1963 22.5795 66.5334 22.5795C65.8326 22.5795 65.2313 22.8021 64.7294 23.2472C64.2275 23.6922 63.844 24.3267 63.5788 25.1506C63.3137 25.965 63.1811 26.9451 63.1811 28.0909C63.1811 29.2273 63.3137 30.2074 63.5788 31.0312C63.844 31.8551 64.2275 32.4896 64.7294 32.9347C65.2313 33.3797 65.8326 33.6023 66.5334 33.6023Z" fill="#4EA8DE"/>
<path d="M88.8629 39.2841C87.3099 39.2841 85.88 38.8769 84.5732 38.0625C83.2758 37.2481 82.2341 36.0123 81.4482 34.3551C80.6716 32.6979 80.2834 30.6098 80.2834 28.0909C80.2834 25.4583 80.6906 23.3182 81.505 21.6705C82.3288 20.0227 83.3894 18.8153 84.6868 18.0483C85.9936 17.2812 87.3667 16.8977 88.8061 16.8977C89.8857 16.8977 90.8326 17.0871 91.647 17.4659C92.4614 17.8352 93.1432 18.3324 93.6925 18.9574C94.2417 19.5729 94.6584 20.25 94.9425 20.9886H95.0561V9.90909H102.897V39H95.1129V35.4205H94.9425C94.6394 36.1591 94.2038 36.822 93.6357 37.4091C93.0769 37.9867 92.3951 38.446 91.5902 38.7869C90.7947 39.1184 89.8857 39.2841 88.8629 39.2841ZM91.7607 33.2614C92.4804 33.2614 93.0959 33.053 93.6072 32.6364C94.1281 32.2102 94.5258 31.6136 94.8004 30.8466C95.0845 30.0701 95.2266 29.1515 95.2266 28.0909C95.2266 27.0114 95.0845 26.0881 94.8004 25.321C94.5258 24.5445 94.1281 23.9527 93.6072 23.5455C93.0959 23.1288 92.4804 22.9205 91.7607 22.9205C91.041 22.9205 90.4254 23.1288 89.9141 23.5455C89.4122 23.9527 89.0239 24.5445 88.7493 25.321C88.4841 26.0881 88.3516 27.0114 88.3516 28.0909C88.3516 29.1705 88.4841 30.0985 88.7493 30.875C89.0239 31.642 89.4122 32.2339 89.9141 32.6506C90.4254 33.0578 91.041 33.2614 91.7607 33.2614ZM117.258 39.3977C114.89 39.3977 112.864 38.929 111.178 37.9915C109.493 37.0445 108.2 35.7282 107.3 34.0426C106.401 32.3475 105.951 30.3826 105.951 28.1477C105.951 25.9129 106.401 23.9527 107.3 22.267C108.2 20.572 109.493 19.2557 111.178 18.3182C112.864 17.3712 114.89 16.8977 117.258 16.8977C119.625 16.8977 121.652 17.3712 123.337 18.3182C125.023 19.2557 126.316 20.572 127.215 22.267C128.115 23.9527 128.565 25.9129 128.565 28.1477C128.565 30.3826 128.115 32.3475 127.215 34.0426C126.316 35.7282 125.023 37.0445 123.337 37.9915C121.652 38.929 119.625 39.3977 117.258 39.3977ZM117.315 33.6023C117.978 33.6023 118.55 33.3797 119.033 32.9347C119.516 32.4896 119.89 31.8551 120.156 31.0312C120.421 30.2074 120.553 29.2273 120.553 28.0909C120.553 26.9451 120.421 25.965 120.156 25.1506C119.89 24.3267 119.516 23.6922 119.033 23.2472C118.55 22.8021 117.978 22.5795 117.315 22.5795C116.614 22.5795 116.013 22.8021 115.511 23.2472C115.009 23.6922 114.625 24.3267 114.36 25.1506C114.095 25.965 113.962 26.9451 113.962 28.0909C113.962 29.2273 114.095 30.2074 114.36 31.0312C114.625 31.8551 115.009 32.4896 115.511 32.9347C116.013 33.3797 116.614 33.6023 117.315 33.6023Z" fill="#5E60CE"/>
</g>
<defs>
<filter id="filter0_d_4130_509" x="0" y="0" width="134" height="56" filterUnits="userSpaceOnUse" color-interpolation-filters="sRGB">
<feFlood flood-opacity="0" result="BackgroundImageFix"/>
<feColorMatrix in="SourceAlpha" type="matrix" values="0 0 0 0 0 0 0 0 0 0 0 0 0 0 0 0 0 0 127 0" result="hardAlpha"/>
<feOffset dy="4"/>
<feGaussianBlur stdDeviation="2"/>
<feComposite in2="hardAlpha" operator="out"/>
<feColorMatrix type="matrix" values="0 0 0 0 0 0 0 0 0 0 0 0 0 0 0 0 0 0 0.25 0"/>
<feBlend mode="normal" in2="BackgroundImageFix" result="effect1_dropShadow_4130_509"/>
<feBlend mode="normal" in="SourceGraphic" in2="effect1_dropShadow_4130_509" result="shape"/>
</filter>
<clipPath id="clip0_4130_509">
<rect width="22" height="36" fill="white" transform="translate(4 6)"/>
</clipPath>
</defs>
</svg>
